<svg width="217" height="71" viewBox="0 0 217 71" fill="none" xmlns="http://www.w3.org/2000/svg">
<path d="M214.188 28.7494C214.186 28.2856 214.092 27.8269 213.911 27.3998C213.73 26.9728 213.466 26.5859 213.134 26.2615C212.803 25.9371 212.41 25.6816 211.98 25.5099C211.549 25.3382 211.088 25.2537 210.624 25.2612C201.335 25.2612 193.222 44.8063 203.591 44.8063C208.577 44.8063 211.44 38.7589 211.648 38.0954C211.857 37.4319 211.534 37.4129 211.231 37.8868C210.549 39.138 208.198 43.574 204.387 43.574C201.809 43.574 200.823 41.4698 200.937 39.138C208.937 35.9911 214.188 32.465 214.188 28.7494ZM200.804 38.2281C201.354 33.2233 205.601 26.0195 210.15 26.1333C213.904 26.2091 214.549 33.7162 200.804 38.1901V38.2281Z" fill="#090708" stroke="#090708" stroke-width="3.79147" stroke-miterlimit="10"/>
<path d="M133.545 25.7926C132.218 25.7926 130.834 26.8542 129.753 30.1338C129.753 25.8305 127.251 25.3755 126.303 25.3755C121.659 25.3755 115.346 33.9253 115.346 39.821C115.265 40.447 115.318 41.0831 115.504 41.6865C115.689 42.2898 116.001 42.8465 116.42 43.319C116.838 43.7914 117.353 44.1687 117.93 44.4253C118.507 44.682 119.132 44.8121 119.763 44.8068C123.118 44.8068 126.151 40.6362 127.061 38.3424H127.099C126.227 40.731 125.336 44.8258 128.787 44.8258C129.904 44.6859 130.952 44.2051 131.786 43.4486C132.62 42.6921 133.202 41.6968 133.45 40.5983C133.564 40.295 133.317 40.276 133.185 40.4466C132.502 41.7547 131.289 43.404 129.886 43.404C127.403 43.404 128.881 39.2144 129.602 36.7689C131.763 29.8116 132.464 27.2902 134.076 26.1528C134.208 26.058 134.36 25.7926 133.545 25.7926ZM127.971 34.8163C126.531 38.9869 123.497 43.4419 120.768 43.4419C113.185 43.4419 120.369 26.1338 126.455 26.1338C128.18 26.1338 130.284 28.1433 127.971 34.8163Z" fill="#090708" stroke="#090708" stroke-width="3.79147" stroke-miterlimit="10"/>
<path d="M160.008 28.4085C160.008 25.527 157.031 25.2237 156.368 25.2237C153.183 25.2237 149.562 26.9488 149.562 30.5886C149.562 34.2284 155.382 36.6549 155.382 40.0673C155.382 43.6881 152.804 44.3706 150.643 44.3706C149.733 44.3706 147.97 43.8967 147.97 42.6076C147.97 41.3185 148.785 41.2995 148.842 39.9535C148.865 39.6221 148.763 39.2942 148.555 39.0344C148.348 38.7747 148.051 38.6021 147.723 38.5507C146.908 38.4369 145.922 39.1194 145.96 40.9962C145.96 44.0483 148.671 44.9014 150.643 44.9203C156.519 45.072 157.448 40.6739 157.448 39.3848C157.448 35.29 151.534 33.2995 151.534 29.3374C151.534 27.1573 154.017 25.7734 155.894 25.7924C157.088 25.7924 157.998 26.2284 157.998 27.2331C157.998 27.726 157.467 28.0294 157.183 28.6549C157.093 28.8257 157.041 29.0137 157.03 29.2064C157.019 29.3991 157.05 29.5919 157.12 29.7717C157.19 29.9515 157.298 30.1141 157.436 30.2485C157.575 30.3829 157.74 30.486 157.922 30.5507C158.756 30.8919 160.008 30.2094 160.008 28.5222V28.4085Z" fill="#090708" stroke="#090708" stroke-width="3.79147" stroke-miterlimit="10"/>
<path d="M103.439 30.0951C103.439 26.4932 103.003 24.6733 101.733 24.768C101.543 24.7633 101.353 24.8002 101.178 24.8762C101.004 24.9522 100.848 25.0655 100.721 25.2082C100.595 25.3509 100.501 25.5194 100.447 25.7021C100.392 25.8847 100.378 26.0771 100.406 26.2657C100.577 27.5358 102.112 27.3273 102.416 30.5311C102.795 35.0808 98.4914 44.0098 94.3207 43.9529C91.098 43.9529 91.5909 41.242 92.6904 38.6448C94.0578 36.1024 94.9568 33.3348 95.3444 30.4742C95.5336 29.0163 95.3711 27.5342 94.8705 26.1519C93.9416 24.3699 92.3492 25.6022 92.5577 26.55C92.8042 27.9908 93.8658 28.1804 93.6572 31.3652C93.335 36.2562 87.97 43.9908 83.7046 43.9529C81.8089 43.9529 81.2591 42.6259 81.316 41.1472C81.4677 36.4647 90.9653 25.9813 86.0364 25.2989C84.008 24.9955 81.7331 27.6685 80.7283 28.9387C80.4819 29.2609 80.88 29.5263 81.0506 29.242C82.3397 27.5169 83.6667 26.2467 84.4819 26.3036C87.9321 26.6069 79.079 36.0477 78.9843 40.9387C78.9443 41.4467 79.015 41.9574 79.1914 42.4355C79.3679 42.9137 79.6458 43.3478 80.0062 43.7082C80.3665 44.0686 80.8007 44.3465 81.2789 44.523C81.757 44.6994 82.2677 44.7701 82.7757 44.7301C84.1472 44.6218 85.481 44.2286 86.692 43.5758C87.903 42.923 88.9645 42.0248 89.8089 40.9387C89.4487 43.0808 90.2828 44.5216 93.2212 44.7301C99.7236 44.9955 103.629 35.1188 103.534 30.0192L103.439 30.0951Z" fill="#090708" stroke="#090708" stroke-width="3.79147" stroke-miterlimit="10"/>
<path d="M79.8378 49.7352C79.8378 49.7352 79.7051 49.7352 79.6104 49.7352C78.2098 51.0508 76.6934 52.2372 75.0796 53.2802C73.462 54.3273 71.7403 55.204 69.9421 55.8964C66.9516 57.0024 63.7542 57.4361 60.5772 57.1665C57.3448 56.8985 54.1895 56.0374 51.2691 54.6262C48.3393 53.1838 45.5364 51.4969 42.89 49.5836C41.1634 48.3409 39.5053 47.0056 37.9232 45.5836C36.0274 43.9532 34.1317 42.2092 32.236 40.4272C30.3402 38.6452 28.4445 36.8821 26.5487 35.1191L22.7573 31.4983L23.0227 30.702C25.9805 29.5214 28.8129 28.048 31.4777 26.3039C34.4919 24.4082 37.4492 22.3608 40.4066 20.3703C41.9042 19.3087 43.4208 18.285 44.9374 17.3182C46.454 16.3513 48.0085 15.4224 49.6388 14.5125L52.6151 12.8253L55.5535 11.157C56.8047 10.5125 58.0369 9.90584 59.345 9.26129C60.653 8.61674 61.8852 8.25655 63.1364 7.83949C64.372 7.41967 65.6401 7.10264 66.9279 6.89162C68.185 6.70802 69.4622 6.70802 70.7194 6.89162C71.8751 7.05537 72.9817 7.46713 73.9633 8.09866C74.945 8.73019 75.7784 9.56655 76.4066 10.5504C77.1922 11.7484 77.6677 13.123 77.7905 14.5504C77.9506 15.9849 77.7553 17.4367 77.2217 18.7779C76.7952 20.0449 76.0963 21.2031 75.1743 22.1712C74.3058 23.1565 73.2731 23.9839 72.1222 24.6167C70.9131 25.222 69.5873 25.5583 68.2359 25.6025C66.8803 25.662 65.5297 25.4023 64.2928 24.8442L63.5724 24.4651L62.871 24.0101C62.435 23.6878 62.0748 23.6499 61.8473 24.0101C61.6198 24.3703 61.7146 24.5978 62.1506 24.9201C63.3234 25.7075 64.7003 26.1357 66.1127 26.1523C67.5504 26.1834 68.9855 26.0176 70.3781 25.6594C71.6162 25.3324 72.7807 24.7727 73.8094 24.0101C74.8525 23.2551 75.7569 22.3251 76.4824 21.2613C77.2365 20.1096 77.7581 18.8216 78.0179 17.4698C78.3021 16.1772 78.3021 14.8383 78.0179 13.5456C77.7474 12.2708 77.2324 11.0605 76.5014 9.98167C75.7853 8.90652 74.8065 8.03212 73.6578 7.44138C72.6219 6.8754 71.4788 6.53311 70.3023 6.43664C69.1127 6.33429 67.9149 6.38526 66.7383 6.5883C65.4036 6.78654 64.0855 7.08437 62.7952 7.4793C61.5018 7.87029 60.2353 8.34523 59.0037 8.9011C57.8473 9.39399 56.6909 9.94375 55.5345 10.4935C54.3781 11.0433 53.2597 11.6499 52.1222 12.2755L48.3307 14.3039C47.1175 14.9674 45.9232 15.7068 44.7288 16.4651C41.544 18.3608 38.3971 20.4651 35.2502 22.5883C32.1673 24.6739 28.9431 26.5426 25.6009 28.1807L23.4397 29.1855C23.6104 28.6167 23.7999 28.048 23.9895 27.4793C25.2533 23.6878 26.5677 19.8964 27.9326 16.1049C28.2078 15.3117 28.5242 14.5334 28.8805 13.7731C29.3734 12.7305 29.9042 11.612 30.5487 10.4177C31.2031 9.22546 31.9181 8.06754 32.6909 6.94849C33.3525 5.94024 34.1499 5.02801 35.0606 4.23759C35.717 3.63277 36.5756 3.29476 37.4682 3.28972C38.2833 3.28972 39.0037 3.89636 39.6862 4.99588C39.8378 5.28024 39.9516 5.37503 39.9706 5.28024C39.9735 5.15673 39.9333 5.03605 39.8568 4.93901C39.5223 4.34331 39.0785 3.81595 38.5488 3.38451C38.0666 2.97354 37.5228 2.64089 36.9374 2.39873C36.4156 2.19263 35.8662 2.06486 35.307 2.01958C34.8552 1.97228 34.3985 2.01087 33.9611 2.13332C32.6457 2.55845 31.4937 3.37943 30.6625 4.48404C29.6803 5.73554 28.8469 7.09697 28.1791 8.54091C27.4531 10.036 26.82 11.5745 26.2833 13.1475C25.7715 14.702 25.3544 16.048 25.0511 17.1475C24.0653 20.484 23.1554 23.7826 22.0559 27.0812C21.7525 28.1238 21.4303 29.1665 21.1269 30.1902C20.217 29.2802 19.2312 28.4082 18.416 27.593C17.4963 26.7457 16.4626 26.031 15.345 25.4698C14.8161 25.2336 14.2631 25.0556 13.6957 24.939C13.1436 24.7864 12.5605 24.7864 12.0085 24.939C11.3819 25.1224 10.8263 25.4928 10.416 26.0006C9.99146 26.4916 9.67496 27.0665 9.48714 27.6878C9.18149 28.4114 9.08939 29.2074 9.22174 29.9817C9.3871 30.6195 9.69863 31.2101 10.1317 31.7068C10.4492 32.1025 10.8786 32.3932 11.3639 32.5409C11.8393 32.7069 12.3275 32.8337 12.8236 32.9201C13.9608 33.0424 15.1095 33.0041 16.236 32.8063C17.8321 32.5157 19.4038 32.1038 20.9374 31.5741C20.4066 33.3371 19.8758 35.1001 19.345 36.9011C18.4729 39.8964 17.6009 42.8916 16.7857 45.8679C15.9706 48.8442 15.0796 51.8205 14.1886 54.8158C13.9421 55.8016 13.563 57.0148 13.1649 58.4556C12.7036 59.918 12.1332 61.3438 11.4587 62.721C10.8497 64.0727 10.0795 65.3457 9.16486 66.5125C8.43269 67.5262 7.32816 68.208 6.09377 68.4082C5.86842 68.441 5.63846 68.4184 5.42377 68.3425C5.20909 68.2665 5.01612 68.1394 4.86155 67.9722C4.41269 67.5668 4.00035 67.1228 3.62932 66.6452L2.60562 65.2992C2.32126 64.9011 2.13169 64.7305 2.05586 64.7684C1.98003 64.8063 1.94211 65.0907 2.20752 65.5077C2.52339 65.9741 2.87181 66.4175 3.25017 66.8347C3.68299 67.3118 4.14519 67.7613 4.63406 68.1807C4.92599 68.4883 5.2913 68.7166 5.69567 68.8442C6.10349 68.9107 6.52081 68.8893 6.91968 68.7814C7.31855 68.6735 7.68977 68.4816 8.00846 68.2186C8.72192 67.6739 9.35947 67.0364 9.9042 66.3229C10.4908 65.56 11.0108 64.7481 11.4587 63.8964C11.8947 63.0433 12.2928 62.3419 12.6151 61.7163C13.4949 59.9289 14.2734 58.0935 14.9469 56.2186C15.6483 54.3229 16.2928 52.4272 16.8426 50.4366C17.3924 48.4461 18.0179 46.5314 18.5867 44.5788C19.1554 42.6262 19.7051 40.7874 20.3118 38.8916C21.0701 36.5978 21.8284 34.3039 22.5677 32.0101L25.4682 34.8158L30.8331 39.9343C32.7288 41.6973 34.5108 43.3466 36.2928 44.939C38.0748 46.5314 39.6672 47.8205 41.0132 48.8442C43.6675 50.7971 46.4618 52.5522 49.3734 54.0954C52.235 55.6794 55.3434 56.7689 58.5677 57.3182C61.5946 57.8613 64.7021 57.7579 67.6862 57.0148C69.4181 56.5851 71.092 55.9486 72.672 55.1191C74.2355 54.3076 75.7261 53.3626 77.1269 52.2945C77.6009 51.9153 78.0559 51.5551 78.5108 51.157L79.8189 49.9817C79.851 49.9496 79.8706 49.9072 79.8741 49.862C79.8775 49.8167 79.8647 49.7718 79.8378 49.7352ZM15.7431 31.4793C14.59 31.6041 13.4269 31.6041 12.2739 31.4793C11.8055 31.3937 11.3521 31.2404 10.9279 31.0243C10.4752 30.8065 10.1274 30.4178 9.96107 29.9438C9.74121 29.4491 9.69446 28.8948 9.82837 28.3703C10.0097 27.6304 10.3601 26.9425 10.8521 26.3608C11.1969 25.8691 11.6914 25.5019 12.2619 25.314C12.8324 25.1261 13.4484 25.1276 14.0179 25.3182C14.6833 25.4682 15.3224 25.7174 15.9137 26.0575C16.4901 26.3753 17.0414 26.7365 17.563 27.1381C18.0797 27.5329 18.5734 27.957 19.0416 28.4082C19.5156 28.8821 19.9895 29.3371 20.4634 29.7542L20.8995 30.1902C20.0653 30.4746 19.2123 30.74 18.3592 30.9674C17.4972 31.1859 16.6238 31.3568 15.7431 31.4793Z" fill="#090708" stroke="#090708" stroke-width="3.79147" stroke-miterlimit="10"/>
<path d="M186.851 28.7497C186.849 28.2843 186.754 27.8241 186.572 27.3957C186.389 26.9674 186.124 26.5796 185.79 26.255C185.457 25.9303 185.062 25.6753 184.629 25.5047C184.196 25.3342 183.733 25.2515 183.268 25.2616C173.998 25.2616 165.884 44.8066 176.216 44.8066C181.24 44.8066 184.102 38.7592 184.311 38.0957C184.519 37.4322 184.197 37.4133 183.894 37.8872C183.211 39.1384 180.861 43.5744 177.05 43.5744C174.472 43.5744 173.467 41.4701 173.6 39.1384C181.6 35.9915 186.851 32.4654 186.851 28.7497ZM173.467 38.2284C174.017 33.2237 178.263 26.0199 182.813 26.1336C186.567 26.2095 187.211 33.7166 173.467 38.1905V38.2284Z" fill="#090708" stroke="#090708" stroke-width="3.79147" stroke-miterlimit="10"/>
</svg>
