<svg width="217" height="72" viewBox="0 0 217 72" fill="none" xmlns="http://www.w3.org/2000/svg">
<path d="M214.188 29.3084C214.186 28.8447 214.092 28.386 213.911 27.9589C213.73 27.5318 213.466 27.1449 213.134 26.8205C212.803 26.4961 212.41 26.2407 211.98 26.069C211.549 25.8973 211.088 25.8128 210.624 25.8203C201.335 25.8203 193.222 45.3653 203.591 45.3653C208.577 45.3653 211.44 39.3179 211.648 38.6544C211.857 37.9909 211.534 37.9719 211.231 38.4459C210.549 39.6971 208.198 44.1331 204.387 44.1331C201.809 44.1331 200.823 42.0288 200.937 39.6971C208.937 36.5501 214.188 33.0241 214.188 29.3084ZM200.804 38.7871C201.354 33.7824 205.601 26.5786 210.15 26.6923C213.904 26.7682 214.549 34.2753 200.804 38.7492V38.7871Z" fill="white" stroke="white" stroke-width="3.79147" stroke-miterlimit="10"/>
<path d="M133.545 26.3516C132.218 26.3516 130.834 27.4132 129.753 30.6929C129.753 26.3895 127.251 25.9346 126.303 25.9346C121.659 25.9346 115.346 34.4843 115.346 40.3801C115.265 41.006 115.318 41.6421 115.504 42.2455C115.689 42.8489 116.001 43.4056 116.42 43.878C116.838 44.3505 117.353 44.7277 117.93 44.9844C118.507 45.241 119.132 45.3711 119.763 45.3658C123.118 45.3658 126.152 41.1952 127.061 38.9014H127.099C126.227 41.29 125.336 45.3848 128.787 45.3848C129.904 45.245 130.952 44.7641 131.786 44.0076C132.621 43.2512 133.202 42.2559 133.45 41.1573C133.564 40.854 133.317 40.835 133.185 41.0057C132.502 42.3137 131.289 43.963 129.886 43.963C127.403 43.963 128.881 39.7734 129.602 37.3279C131.763 30.3706 132.464 27.8493 134.076 26.7118C134.208 26.617 134.36 26.3516 133.545 26.3516ZM127.971 35.3753C126.531 39.5459 123.497 44.0009 120.768 44.0009C113.185 44.0009 120.37 26.6929 126.455 26.6929C128.18 26.6929 130.284 28.7023 127.971 35.3753Z" fill="white" stroke="white" stroke-width="3.79147" stroke-miterlimit="10"/>
<path d="M160.008 28.9675C160.008 26.086 157.031 25.7827 156.368 25.7827C153.183 25.7827 149.562 27.5078 149.562 31.1476C149.562 34.7875 155.382 37.214 155.382 40.6263C155.382 44.2472 152.804 44.9296 150.643 44.9296C149.733 44.9296 147.97 44.4557 147.97 43.1666C147.97 41.8775 148.785 41.8585 148.842 40.5126C148.865 40.1812 148.763 39.8532 148.555 39.5935C148.348 39.3338 148.051 39.1611 147.723 39.1097C146.908 38.996 145.922 39.6785 145.96 41.5552C145.96 44.6074 148.671 45.4604 150.643 45.4794C156.519 45.6311 157.448 41.233 157.448 39.9439C157.448 35.8491 151.534 33.8585 151.534 29.8965C151.534 27.7164 154.017 26.3325 155.894 26.3514C157.088 26.3514 157.998 26.7875 157.998 27.7922C157.998 28.2851 157.467 28.5884 157.183 29.214C157.093 29.3847 157.041 29.5728 157.03 29.7655C157.019 29.9582 157.05 30.1509 157.12 30.3307C157.19 30.5105 157.298 30.6732 157.436 30.8076C157.575 30.942 157.74 31.045 157.922 31.1097C158.756 31.451 160.008 30.7685 160.008 29.0813V28.9675Z" fill="white" stroke="white" stroke-width="3.79147" stroke-miterlimit="10"/>
<path d="M103.439 30.6543C103.439 27.0524 103.003 25.2325 101.733 25.3273C101.543 25.3225 101.353 25.3594 101.178 25.4354C101.004 25.5114 100.848 25.6248 100.721 25.7674C100.595 25.9101 100.501 26.0786 100.447 26.2613C100.392 26.4439 100.378 26.6363 100.406 26.8249C100.577 28.095 102.112 27.8865 102.416 31.0903C102.795 35.64 98.4914 44.569 94.3207 44.5121C91.098 44.5121 91.5909 41.8012 92.6904 39.204C94.0578 36.6616 94.9568 33.894 95.3444 31.0334C95.5336 29.5755 95.3711 28.0934 94.8705 26.7111C93.9416 24.9291 92.3492 26.1614 92.5577 27.1092C92.8042 28.55 93.8658 28.7396 93.6572 31.9244C93.335 36.8154 87.97 44.55 83.7046 44.5121C81.8089 44.5121 81.2591 43.1851 81.316 41.7064C81.4677 37.0239 90.9653 26.5405 86.0364 25.8581C84.008 25.5547 81.7331 28.2277 80.7283 29.4979C80.4819 29.8201 80.88 30.0855 81.0506 29.8012C82.3397 28.0761 83.6667 26.8059 84.4819 26.8628C87.9321 27.1661 79.079 36.6069 78.9843 41.4979C78.9443 42.0059 79.015 42.5166 79.1914 42.9947C79.3679 43.4729 79.6458 43.9071 80.0062 44.2674C80.3665 44.6278 80.8007 44.9057 81.2789 45.0822C81.757 45.2586 82.2677 45.3293 82.7757 45.2893C84.1472 45.181 85.481 44.7878 86.692 44.135C87.903 43.4822 88.9645 42.584 89.8089 41.4979C89.4487 43.6401 90.2828 45.0808 93.2212 45.2893C99.7236 45.5547 103.629 35.678 103.534 30.5784L103.439 30.6543Z" fill="white" stroke="white" stroke-width="3.79147" stroke-miterlimit="10"/>
<path d="M79.8378 50.2943C79.8378 50.2943 79.7051 50.2943 79.6104 50.2943C78.2098 51.6098 76.6934 52.7963 75.0796 53.8393C73.462 54.8864 71.7403 55.7631 69.9421 56.4554C66.9516 57.5615 63.7542 57.9952 60.5772 57.7256C57.3448 57.4576 54.1895 56.5965 51.2691 55.1853C48.3393 53.7429 45.5364 52.056 42.89 50.1426C41.1634 48.9 39.5053 47.5647 37.9232 46.1426C36.0274 44.5123 34.1317 42.7682 32.236 40.9862C30.3402 39.2043 28.4445 37.4412 26.5487 35.6782L22.7573 32.0573L23.0227 31.2611C25.9805 30.0805 28.8129 28.6071 31.4777 26.863C34.4919 24.9673 37.4492 22.9199 40.4066 20.9294C41.9042 19.8678 43.4208 18.8441 44.9374 17.8772C46.454 16.9104 48.0085 15.9815 49.6388 15.0716L52.6151 13.3843L55.5535 11.7161C56.8047 11.0716 58.0369 10.4649 59.345 9.82037C60.653 9.17582 61.8852 8.81563 63.1364 8.39857C64.372 7.97876 65.6401 7.66172 66.9279 7.4507C68.185 7.2671 69.4622 7.2671 70.7194 7.4507C71.8751 7.61446 72.9817 8.02622 73.9633 8.65774C74.945 9.28927 75.7784 10.1256 76.4066 11.1095C77.1922 12.3075 77.6677 13.6821 77.7905 15.1095C77.9506 16.5439 77.7553 17.9958 77.2217 19.337C76.7952 20.604 76.0963 21.7622 75.1743 22.7303C74.3058 23.7156 73.2731 24.543 72.1222 25.1758C70.9131 25.7811 69.5873 26.1174 68.2359 26.1616C66.8803 26.2211 65.5297 25.9614 64.2928 25.4033L63.5724 25.0242L62.871 24.5692C62.435 24.2469 62.0748 24.209 61.8473 24.5692C61.6198 24.9294 61.7146 25.1569 62.1506 25.4791C63.3234 26.2665 64.7003 26.6948 66.1127 26.7114C67.5504 26.7425 68.9855 26.5767 70.3781 26.2185C71.6162 25.8915 72.7807 25.3318 73.8094 24.5692C74.8525 23.8142 75.7569 22.8841 76.4824 21.8204C77.2365 20.6687 77.7581 19.3807 78.0179 18.0289C78.3021 16.7363 78.3021 15.3973 78.0179 14.1047C77.7474 12.8299 77.2324 11.6196 76.5014 10.5407C75.7853 9.46561 74.8065 8.5912 73.6578 8.00046C72.6219 7.43448 71.4788 7.09219 70.3023 6.99572C69.1127 6.89337 67.9149 6.94434 66.7383 7.14738C65.4036 7.34562 64.0855 7.64345 62.7952 8.03838C61.5018 8.42937 60.2353 8.90431 59.0037 9.46018C57.8473 9.95307 56.6909 10.5028 55.5345 11.0526C54.3781 11.6024 53.2597 12.209 52.1222 12.8346L48.3307 14.863C47.1175 15.5265 45.9232 16.2659 44.7288 17.0242C41.544 18.9199 38.3971 21.0242 35.2502 23.1474C32.1673 25.233 28.9431 27.1016 25.6009 28.7398L23.4397 29.7445C23.6104 29.1758 23.7999 28.6071 23.9895 28.0384C25.2533 24.2469 26.5677 20.4554 27.9326 16.664C28.2078 15.8707 28.5242 15.0924 28.8805 14.3322C29.3734 13.2896 29.9042 12.1711 30.5487 10.9768C31.2031 9.78454 31.9181 8.62662 32.6909 7.50757C33.3525 6.49932 34.1499 5.5871 35.0606 4.79667C35.717 4.19185 36.5756 3.85384 37.4682 3.8488C38.2833 3.8488 39.0037 4.45544 39.6862 5.55497C39.8378 5.83933 39.9516 5.93411 39.9706 5.83933C39.9735 5.71581 39.9333 5.59513 39.8568 5.49809C39.5223 4.90239 39.0785 4.37503 38.5488 3.94359C38.0666 3.53262 37.5228 3.19997 36.9374 2.95781C36.4156 2.75171 35.8662 2.62394 35.307 2.57866C34.8552 2.53136 34.3985 2.56995 33.9611 2.69241C32.6457 3.11753 31.4937 3.93851 30.6625 5.04312C29.6803 6.29462 28.8469 7.65605 28.1791 9.09999C27.4531 10.5951 26.82 12.1336 26.2833 13.7066C25.7715 15.2611 25.3544 16.6071 25.0511 17.7066C24.0653 21.0431 23.1554 24.3417 22.0559 27.6403C21.7525 28.6829 21.4303 29.7256 21.1269 30.7493C20.217 29.8393 19.2312 28.9673 18.416 28.1521C17.4963 27.3048 16.4626 26.5901 15.345 26.0289C14.8161 25.7926 14.2631 25.6147 13.6957 25.4981C13.1436 25.3455 12.5605 25.3455 12.0085 25.4981C11.3819 25.6815 10.8263 26.0519 10.416 26.5597C9.99146 27.0507 9.67496 27.6256 9.48714 28.2469C9.18149 28.9705 9.08939 29.7665 9.22174 30.5407C9.3871 31.1786 9.69863 31.7692 10.1317 32.2659C10.4492 32.6615 10.8786 32.9522 11.3639 33.1C11.8393 33.266 12.3275 33.3928 12.8236 33.4791C13.9608 33.6015 15.1095 33.5632 16.236 33.3654C17.8321 33.0748 19.4038 32.6628 20.9374 32.1332C20.4066 33.8962 19.8758 35.6592 19.345 37.4602C18.4729 40.4554 17.6009 43.4507 16.7857 46.427C15.9706 49.4033 15.0796 52.3796 14.1886 55.3749C13.9421 56.3607 13.563 57.5739 13.1649 59.0147C12.7036 60.4771 12.1332 61.9029 11.4587 63.2801C10.8497 64.6317 10.0795 65.9048 9.16486 67.0715C8.43269 68.0853 7.32816 68.7671 6.09377 68.9673C5.86842 69.0001 5.63846 68.9775 5.42377 68.9016C5.20909 68.8256 5.01612 68.6985 4.86155 68.5313C4.41269 68.1259 4.00035 67.6819 3.62932 67.2042L2.60562 65.8583C2.32126 65.4602 2.13169 65.2896 2.05586 65.3275C1.98003 65.3654 1.94211 65.6497 2.20752 66.0668C2.52339 66.5331 2.87181 66.9766 3.25017 67.3938C3.68299 67.8709 4.14519 68.3204 4.63406 68.7398C4.92599 69.0473 5.2913 69.2757 5.69567 69.4033C6.10349 69.4698 6.52081 69.4484 6.91968 69.3405C7.31855 69.2326 7.68977 69.0407 8.00846 68.7777C8.72192 68.233 9.35947 67.5954 9.9042 66.882C10.4908 66.119 11.0108 65.3072 11.4587 64.4554C11.8947 63.6024 12.2928 62.9009 12.6151 62.2753C13.4949 60.488 14.2734 58.6526 14.9469 56.7777C15.6483 54.882 16.2928 52.9862 16.8426 50.9957C17.3924 49.0052 18.0179 47.0905 18.5867 45.1379C19.1554 43.1853 19.7051 41.3464 20.3118 39.4507C21.0701 37.1569 21.8284 34.863 22.5677 32.5692L25.4682 35.3749L30.8331 40.4934C32.7288 42.2564 34.5108 43.9057 36.2928 45.4981C38.0748 47.0905 39.6672 48.3796 41.0132 49.4033C43.6675 51.3561 46.4618 53.1113 49.3734 54.6545C52.235 56.2385 55.3434 57.328 58.5677 57.8772C61.5946 58.4204 64.7021 58.317 67.6862 57.5739C69.4181 57.1442 71.092 56.5077 72.672 55.6782C74.2355 54.8667 75.7261 53.9217 77.1269 52.8535C77.6009 52.4744 78.0559 52.1142 78.5108 51.7161L79.8189 50.5407C79.851 50.5087 79.8706 50.4663 79.8741 50.421C79.8775 50.3758 79.8647 50.3309 79.8378 50.2943ZM15.7431 32.0384C14.59 32.1632 13.4269 32.1632 12.2739 32.0384C11.8055 31.9528 11.3521 31.7995 10.9279 31.5834C10.4752 31.3656 10.1274 30.9769 9.96107 30.5028C9.74121 30.0082 9.69446 29.4539 9.82837 28.9294C10.0097 28.1894 10.3601 27.5016 10.8521 26.9199C11.1969 26.4281 11.6914 26.061 12.2619 25.8731C12.8324 25.6852 13.4484 25.6866 14.0179 25.8772C14.6833 26.0273 15.3224 26.2765 15.9137 26.6166C16.4901 26.9344 17.0414 27.2956 17.563 27.6971C18.0797 28.092 18.5734 28.5161 19.0416 28.9673C19.5156 29.4412 19.9895 29.8962 20.4634 30.3133L20.8995 30.7493C20.0653 31.0336 19.2123 31.299 18.3592 31.5265C17.4972 31.745 16.6238 31.9159 15.7431 32.0384Z" fill="white" stroke="white" stroke-width="3.79147" stroke-miterlimit="10"/>
<path d="M186.851 29.3088C186.849 28.8434 186.754 28.3831 186.572 27.9548C186.389 27.5265 186.124 27.1387 185.79 26.814C185.457 26.4894 185.062 26.2343 184.629 26.0638C184.196 25.8932 183.733 25.8106 183.268 25.8206C173.998 25.8206 165.884 45.3657 176.216 45.3657C181.24 45.3657 184.102 39.3183 184.311 38.6548C184.519 37.9913 184.197 37.9723 183.894 38.4462C183.211 39.6974 180.861 44.1334 177.05 44.1334C174.472 44.1334 173.467 42.0292 173.6 39.6974C181.6 36.5505 186.851 33.0244 186.851 29.3088ZM173.467 38.7875C174.017 33.7827 178.263 26.5789 182.813 26.6927C186.567 26.7685 187.211 34.2756 173.467 38.7496V38.7875Z" fill="white" stroke="white" stroke-width="3.79147" stroke-miterlimit="10"/>
</svg>
